<svg xmlns="http://www.w3.org/2000/svg" viewBox="0 0 100 100" width="200px" height="200px"><path fill="#c8ede6" d="M87.214,55.677c0.3-0.616,0.566-1.264,0.796-1.943c2.633-7.77-1.349-17.078-9.733-19.325C77.37,23.026,69.37,15.216,60.335,13.884c-10.341-1.525-19.814,5.044-22.966,15.485c-3.799-1.346-7.501-1.182-10.99,0.857c-1.583,0.732-3.031,1.812-4.33,3.233c-1.907,2.086-3.147,4.719-3.652,7.495c-0.748,0.118-1.483,0.236-2.176,0.484c-4.04,1.449-6.589,4.431-7.288,8.923c-0.435,2.797,0.443,5.587,0.933,6.714c1.935,4.455,6.422,6.98,10.981,6.312c0.227-0.033,0.557,0.069,0.752,0.233c0.241,7.12,3.698,13.417,8.884,17.014c8.321,5.772,19.027,3.994,25.781-3.921c2.894,2.96,6.338,4.398,10.384,3.876c4.023-0.519,7.147-2.739,9.426-6.349c1.053,0.283,2.051,0.691,3.083,0.804c4.042,0.442,7.297-1.184,9.732-4.8c0.083-0.124,0.203-0.219,0.306-0.328c0.348-0.798,0.696-1.596,1.044-2.394c0.155-1.211,0.429-2.423,0.443-3.632C90.722,60.634,89.39,57.667,87.214,55.677z"/><path fill="#fdfcef" d="M45.925,68.335c1.883,0,3.517,0,3.54,0c2.11,0,3.821-1.674,3.821-3.739c0-1.802-1.302-3.305-3.035-3.66c0.02-0.158,0.034-0.317,0.034-0.48c0-2.139-1.772-3.873-3.957-3.873c-1.29,0-2.433,0.607-3.155,1.543c-0.185-2.381-2.358-4.218-4.9-3.913c-1.859,0.223-3.397,1.629-3.739,3.431c-0.11,0.578-0.098,1.139,0.011,1.665c-0.498-0.525-1.208-0.856-1.998-0.856c-1.446,0-2.627,1.102-2.72,2.494c-0.657-0.142-1.371-0.133-2.123,0.143c-1.438,0.528-2.462,1.853-2.522,3.356c-0.085,2.133,1.657,3.889,3.818,3.889c0.164,0,0.741,0,0.874,0h7.934 M39.448,68.335h0.36"/><path fill="#472b29" d="M49.465,68.836h-3.54c-0.276,0-0.5-0.224-0.5-0.5s0.224-0.5,0.5-0.5h3.54c1.831,0,3.32-1.453,3.32-3.24c0-1.524-1.108-2.857-2.635-3.169c-0.257-0.052-0.43-0.294-0.396-0.554c0.018-0.137,0.03-0.275,0.03-0.416c0-1.86-1.551-3.373-3.457-3.373c-1.093,0-2.099,0.491-2.76,1.348c-0.126,0.164-0.343,0.232-0.538,0.173c-0.198-0.059-0.34-0.234-0.355-0.44c-0.079-1.019-0.565-1.943-1.37-2.603c-0.827-0.68-1.878-0.983-2.973-0.852c-1.646,0.196-3.006,1.441-3.308,3.027c-0.094,0.494-0.09,0.989,0.01,1.471c0.046,0.219-0.06,0.441-0.258,0.544c-0.197,0.104-0.44,0.063-0.594-0.099c-0.429-0.452-1.01-0.7-1.636-0.7c-1.169,0-2.146,0.891-2.222,2.028c-0.01,0.145-0.082,0.278-0.198,0.366s-0.264,0.12-0.407,0.089c-0.638-0.14-1.242-0.098-1.845,0.124c-1.262,0.464-2.144,1.632-2.193,2.906c-0.035,0.875,0.282,1.708,0.894,2.345c0.635,0.661,1.496,1.025,2.424,1.025h8.808c0.276,0,0.5,0.224,0.5,0.5s-0.224,0.5-0.5,0.5h-8.808c-1.186,0-2.332-0.485-3.145-1.332c-0.803-0.835-1.219-1.928-1.173-3.078c0.066-1.674,1.212-3.203,2.849-3.805c0.611-0.225,1.242-0.309,1.881-0.244c0.345-1.396,1.63-2.424,3.136-2.424c0.499,0,0.979,0.11,1.413,0.319c0.009-0.24,0.036-0.481,0.082-0.721c0.382-2.01,2.098-3.586,4.171-3.834c1.364-0.162,2.686,0.218,3.727,1.072c0.747,0.613,1.278,1.409,1.546,2.301c0.791-0.648,1.785-1.006,2.843-1.006c2.458,0,4.457,1.962,4.457,4.373c0,0.034-0.001,0.068-0.002,0.103c1.764,0.554,3.003,2.188,3.003,4.037C53.786,66.934,51.847,68.836,49.465,68.836z M39.807,68.836h-0.359c-0.276,0-0.5-0.224-0.5-0.5s0.224-0.5,0.5-0.5h0.359c0.276,0,0.5,0.224,0.5,0.5S40.084,68.836,39.807,68.836z"/><path fill="#472b29" d="M47.758 63.032c-.018 0-.036-.002-.055-.006-.135-.03-.22-.164-.189-.299.038-.168.095-.33.17-.48.604-1.225 2.275-1.674 3.721-1.006.126.058.181.207.122.332-.058.125-.208.18-.331.122-1.207-.559-2.579-.209-3.063.774-.058.115-.102.238-.13.367C47.976 62.953 47.873 63.032 47.758 63.032zM42.599 68.836h-1.107c-.276 0-.5-.224-.5-.5s.224-.5.5-.5h1.107c.276 0 .5.224.5.5S42.876 68.836 42.599 68.836z"/><path fill="#fdfcef" d="M67.991,70.511c0,0,11.691,0,11.762,0c2.7,0,4.888-2.189,4.888-4.889c0-2.355-1.666-4.321-3.884-4.784c0.026-0.206,0.043-0.415,0.043-0.628c0-2.796-2.267-5.063-5.063-5.063c-1.651,0-3.113,0.794-4.037,2.017c-0.236-3.113-3.017-5.514-6.27-5.116c-2.379,0.291-4.346,2.13-4.784,4.486c-0.14,0.756-0.126,1.489,0.014,2.177c-0.638-0.687-1.546-1.119-2.557-1.119c-1.85,0-3.361,1.441-3.48,3.261c-0.84-0.186-1.754-0.174-2.717,0.188c-1.84,0.691-3.15,2.423-3.227,4.387c-0.109,2.789,2.12,5.085,4.885,5.085c0.21,0,0.948,0,1.118,0h10.151"/><path fill="#472b29" d="M79.753,71.011H67.991c-0.276,0-0.5-0.224-0.5-0.5s0.224-0.5,0.5-0.5h11.762c2.42,0,4.389-1.969,4.389-4.389c0-2.066-1.466-3.873-3.486-4.295c-0.254-0.053-0.426-0.292-0.394-0.55c0.022-0.187,0.039-0.375,0.039-0.567c0-2.516-2.047-4.563-4.562-4.563c-1.439,0-2.766,0.663-3.638,1.818c-0.126,0.166-0.343,0.237-0.54,0.179c-0.2-0.059-0.342-0.235-0.358-0.442c-0.104-1.377-0.778-2.671-1.85-3.549c-1.082-0.887-2.452-1.283-3.86-1.109c-2.166,0.265-3.956,1.943-4.354,4.081c-0.124,0.667-0.12,1.335,0.013,1.986c0.044,0.22-0.062,0.442-0.262,0.544c-0.198,0.103-0.441,0.06-0.596-0.105c-0.572-0.618-1.351-0.959-2.189-0.959c-1.568,0-2.878,1.227-2.98,2.793c-0.01,0.146-0.082,0.28-0.199,0.367c-0.116,0.087-0.269,0.118-0.407,0.088c-0.843-0.187-1.639-0.131-2.434,0.167c-1.669,0.626-2.836,2.209-2.902,3.938c-0.048,1.207,0.386,2.35,1.221,3.218s1.959,1.347,3.163,1.347h11.27c0.276,0,0.5,0.224,0.5,0.5s-0.224,0.5-0.5,0.5h-11.27c-1.479,0-2.858-0.587-3.884-1.654c-1.025-1.066-1.558-2.469-1.5-3.95c0.083-2.126,1.51-4.069,3.551-4.836c0.801-0.3,1.628-0.4,2.468-0.298c0.377-1.823,1.996-3.182,3.904-3.182c0.685,0,1.354,0.179,1.944,0.509c-0.001-0.385,0.035-0.772,0.107-1.159c0.476-2.562,2.62-4.573,5.215-4.891c1.687-0.208,3.32,0.266,4.615,1.328c1.004,0.823,1.716,1.951,2.038,3.193c1.012-0.916,2.319-1.425,3.714-1.425c3.067,0,5.562,2.496,5.562,5.563c0,0.083-0.002,0.167-0.007,0.249c2.254,0.672,3.848,2.777,3.848,5.164C85.141,68.593,82.724,71.011,79.753,71.011z"/><path fill="#fdfcef" d="M63.857,59.656c-1.579-0.103-2.949,1.158-3.06,2.817c-0.014,0.206-0.007,0.409,0.017,0.606c-0.301-0.391-0.75-0.654-1.268-0.688c-0.947-0.062-1.772,0.662-1.898,1.637c-0.172-0.052-0.351-0.087-0.538-0.099c-1.381-0.09-2.58,1.013-2.678,2.465"/><path fill="#472b29" d="M54.433,66.643c-0.006,0-0.011,0-0.017,0c-0.138-0.009-0.242-0.128-0.232-0.266c0.106-1.587,1.407-2.803,2.943-2.698c0.108,0.007,0.217,0.021,0.326,0.042c0.251-0.966,1.112-1.655,2.109-1.58c0.354,0.023,0.692,0.143,0.983,0.343c0-0.009,0.001-0.019,0.002-0.028c0.12-1.794,1.604-3.167,3.325-3.05c0.138,0.009,0.242,0.128,0.232,0.266c-0.008,0.137-0.104,0.248-0.266,0.233c-1.442-0.081-2.691,1.065-2.794,2.584c-0.012,0.188-0.007,0.376,0.016,0.559c0.014,0.112-0.049,0.219-0.153,0.262c-0.102,0.043-0.223,0.01-0.293-0.079c-0.271-0.353-0.657-0.562-1.086-0.59c-0.795-0.052-1.523,0.571-1.634,1.419c-0.01,0.073-0.051,0.138-0.112,0.178c-0.062,0.04-0.138,0.05-0.208,0.029c-0.16-0.049-0.322-0.079-0.481-0.089c-1.23-0.083-2.324,0.919-2.412,2.232C54.673,66.542,54.564,66.643,54.433,66.643z"/><path fill="#fdfcef" d="M81.732,61.411c-1.699-0.801-3.664-0.234-4.389,1.267c-0.09,0.186-0.157,0.379-0.201,0.574"/><path fill="#472b29" d="M77.142,63.501c-0.019,0-0.037-0.002-0.056-0.006c-0.135-0.031-0.219-0.165-0.188-0.3c0.049-0.216,0.123-0.427,0.219-0.626c0.783-1.622,2.899-2.244,4.721-1.384c0.125,0.059,0.179,0.208,0.12,0.333c-0.06,0.125-0.21,0.178-0.333,0.12c-1.574-0.741-3.393-0.226-4.057,1.149c-0.08,0.166-0.142,0.341-0.184,0.521C77.359,63.423,77.257,63.501,77.142,63.501z"/><path fill="#fff" d="M16.879 47.713H6.848c-.276 0-.5-.224-.5-.5s.224-.5.5-.5h10.03c.276 0 .5.224.5.5S17.155 47.713 16.879 47.713zM19.76 47.713h-1.446c-.276 0-.5-.224-.5-.5s.224-.5.5-.5h1.446c.276 0 .5.224.5.5S20.037 47.713 19.76 47.713zM23.814 47.713h-2.546c-.276 0-.5-.224-.5-.5s.224-.5.5-.5h2.546c.276 0 .5.224.5.5S24.09 47.713 23.814 47.713zM23.814 49.578h-9.616c-.276 0-.5-.224-.5-.5s.224-.5.5-.5h9.616c.276 0 .5.224.5.5S24.09 49.578 23.814 49.578zM12.466 49.578h-.58c-.276 0-.5-.224-.5-.5s.224-.5.5-.5h.58c.276 0 .5.224.5.5S12.743 49.578 12.466 49.578zM10.09 49.578H8.633c-.276 0-.5-.224-.5-.5s.224-.5.5-.5h1.456c.276 0 .5.224.5.5S10.366 49.578 10.09 49.578zM19.225 45.848h-5.027c-.276 0-.5-.224-.5-.5s.224-.5.5-.5h5.027c.276 0 .5.224.5.5S19.502 45.848 19.225 45.848zM19.225 43.983h-1.257c-.276 0-.5-.224-.5-.5s.224-.5.5-.5h1.257c.276 0 .5.224.5.5S19.502 43.983 19.225 43.983zM15.957 51.443h-1.759c-.276 0-.5-.224-.5-.5s.224-.5.5-.5h1.759c.276 0 .5.224.5.5S16.233 51.443 15.957 51.443zM70.056 21.436h-10.03c-.276 0-.5-.224-.5-.5s.224-.5.5-.5h10.03c.276 0 .5.224.5.5S70.333 21.436 70.056 21.436zM72.938 21.436h-1.446c-.276 0-.5-.224-.5-.5s.224-.5.5-.5h1.446c.276 0 .5.224.5.5S73.215 21.436 72.938 21.436zM76.993 21.436h-2.546c-.276 0-.5-.224-.5-.5s.224-.5.5-.5h2.546c.276 0 .5.224.5.5S77.269 21.436 76.993 21.436zM74.966 17.706H65.35c-.276 0-.5-.224-.5-.5s.224-.5.5-.5h9.616c.276 0 .5.224.5.5S75.243 17.706 74.966 17.706zM63.619 17.706h-.58c-.276 0-.5-.224-.5-.5s.224-.5.5-.5h.58c.276 0 .5.224.5.5S63.895 17.706 63.619 17.706zM61.242 17.706h-1.456c-.276 0-.5-.224-.5-.5s.224-.5.5-.5h1.456c.276 0 .5.224.5.5S61.518 17.706 61.242 17.706zM72.404 19.571h-5.028c-.276 0-.5-.224-.5-.5s.224-.5.5-.5h5.028c.276 0 .5.224.5.5S72.68 19.571 72.404 19.571z"/><path fill="#fff" d="M72.404 17.706h-1.258c-.276 0-.5-.224-.5-.5s.224-.5.5-.5h1.258c.276 0 .5.224.5.5S72.68 17.706 72.404 17.706zM65.921 19.571h-1.759c-.276 0-.5-.224-.5-.5s.224-.5.5-.5h1.759c.276 0 .5.224.5.5S66.197 19.571 65.921 19.571z"/><path fill="#8e9db5" d="M49.859,25.543l0.253,7.694l-1.88,2.846l-3.462,0.114l-2.063-2.717l-0.253-7.694c-3.322,1.586-5.534,5.09-5.255,9.038c0.254,3.593,2.617,6.643,5.814,7.942l1.058,32.162c0.066,2.01,1.765,3.601,3.775,3.535l0.095-0.003c2.01-0.066,3.601-1.765,3.535-3.775l-1.058-32.157c3.219-1.539,5.399-4.87,5.274-8.67C55.568,30.056,53.175,26.866,49.859,25.543z M47.772,74.759c-0.627,0.021-1.156-0.475-1.177-1.102s0.475-1.156,1.102-1.177c0.627-0.021,1.156,0.475,1.177,1.102S48.399,74.739,47.772,74.759z"/><path fill="#472b29" d="M47.796,79.063c-1.159,0-2.181-0.406-2.976-1.15c-0.832-0.779-1.311-1.832-1.348-2.964l-1.046-31.781c-3.301-1.497-5.572-4.713-5.826-8.3c-0.288-4.085,1.909-7.862,5.596-9.623c0.183-0.088,0.396-0.077,0.57,0.029c0.173,0.105,0.281,0.291,0.288,0.493l0.247,7.503l1.759,2.317l2.842-0.094l1.604-2.428l-0.247-7.503c-0.007-0.202,0.089-0.395,0.255-0.511s0.378-0.142,0.567-0.066c3.645,1.455,6.082,4.929,6.21,8.853c0.124,3.783-1.929,7.294-5.262,9.054l1.046,31.774c0.037,1.132-0.371,2.214-1.15,3.046c-0.779,0.833-1.832,1.311-2.965,1.348C47.905,79.062,47.85,79.063,47.796,79.063z M41.887,26.778c-2.736,1.685-4.32,4.732-4.09,8.005c0.23,3.263,2.366,6.178,5.441,7.428c0.22,0.089,0.366,0.299,0.374,0.536l1.059,32.163c0.026,0.812,0.37,1.567,0.969,2.127c0.598,0.56,1.375,0.853,2.187,0.827c0.907-0.03,1.663-0.374,2.223-0.972c0.561-0.598,0.854-1.375,0.827-2.186l-1.059-32.158c-0.008-0.238,0.126-0.458,0.341-0.561c3.11-1.487,5.047-4.67,4.934-8.109c-0.103-3.13-1.878-5.936-4.602-7.381l0.221,6.722c0.004,0.124-0.03,0.247-0.099,0.35l-1.88,2.846c-0.107,0.163-0.287,0.263-0.481,0.269l-3.462,0.114c-0.201,0.005-0.38-0.082-0.497-0.237l-2.062-2.717c-0.075-0.099-0.118-0.219-0.122-0.343L41.887,26.778z M47.734,75.36c-0.934,0-1.708-0.743-1.738-1.683c-0.031-0.959,0.723-1.765,1.682-1.796c0.943-0.032,1.765,0.722,1.796,1.682c0.016,0.463-0.151,0.905-0.47,1.245s-0.748,0.536-1.212,0.551C47.772,75.36,47.754,75.36,47.734,75.36z M47.734,73.081c-0.006,0-0.012,0-0.018,0c-0.297,0.01-0.531,0.26-0.521,0.558c0.01,0.297,0.263,0.507,0.558,0.521c0.143-0.005,0.276-0.065,0.375-0.171s0.151-0.243,0.146-0.386C48.264,73.311,48.024,73.081,47.734,73.081z"/><path fill="#472b29" d="M45.652 63.047c-.135 0-.245-.106-.25-.242l-.419-12.724c-.005-.138.104-.253.242-.258.002 0 .005 0 .008 0 .135 0 .245.106.25.242l.419 12.724c.005.138-.104.253-.242.258C45.658 63.047 45.655 63.047 45.652 63.047zM45.768 66.581c-.135 0-.245-.106-.25-.242l-.067-2.031c-.005-.138.104-.253.242-.258.002 0 .005 0 .008 0 .135 0 .245.106.25.242l.067 2.031c.005.138-.104.253-.242.258C45.774 66.581 45.771 66.581 45.768 66.581zM45.861 69.408c-.135 0-.245-.106-.25-.242l-.046-1.414c-.004-.138.104-.254.242-.258.148-.012.253.104.258.242l.046 1.414c.004.138-.104.254-.242.258C45.866 69.408 45.864 69.408 45.861 69.408z"/><path fill="#7c8ba2" d="M58.873,62.89L58.873,62.89c-0.956-0.177-1.594-1.104-1.417-2.06l6.297-34.08c0.177-0.956,1.104-1.594,2.06-1.417v0c0.956,0.177,1.594,1.104,1.417,2.06l-6.297,34.08C60.757,62.429,59.83,63.067,58.873,62.89z"/><path fill="#472b29" d="M59.197,63.42c-0.138,0-0.276-0.013-0.414-0.038c-0.594-0.11-1.111-0.446-1.455-0.946c-0.345-0.5-0.474-1.103-0.363-1.697l6.297-34.08c0.109-0.594,0.445-1.111,0.946-1.455c0.5-0.344,1.105-0.473,1.696-0.363c1.229,0.228,2.045,1.413,1.817,2.643l-6.297,34.08c-0.109,0.594-0.445,1.111-0.945,1.455C60.095,63.282,59.651,63.42,59.197,63.42z M65.492,25.803c-0.254,0-0.503,0.077-0.718,0.225c-0.28,0.193-0.469,0.481-0.53,0.812l-6.297,34.08c-0.061,0.332,0.012,0.668,0.204,0.948c0.193,0.28,0.482,0.468,0.813,0.529l0,0c0.332,0.062,0.667-0.01,0.947-0.204c0.28-0.192,0.469-0.481,0.53-0.812l6.297-34.08c0.127-0.688-0.329-1.351-1.017-1.478C65.645,25.81,65.568,25.803,65.492,25.803z"/><path fill="#ee3e54" d="M56.152,52.318l-3.019,16.342c-0.461,2.495,0.769,5.05,3.008,5.792c2.671,0.885,5.465-1.045,6.008-3.986l3.045-16.477L56.152,52.318z"/><path fill="#472b29" d="M57.475,75.368c-0.521,0-1.044-0.083-1.556-0.253c-2.521-0.835-4.015-3.666-3.476-6.583l3.02-16.341c0.07-0.38,0.433-0.632,0.815-0.562l9.041,1.67c0.381,0.07,0.632,0.436,0.562,0.815l-3.044,16.478c-0.318,1.721-1.329,3.197-2.772,4.051C59.252,75.124,58.365,75.368,57.475,75.368z M56.714,53.133l-2.893,15.653c-0.413,2.234,0.679,4.384,2.539,5c0.994,0.329,2.057,0.206,2.992-0.348c1.096-0.648,1.864-1.778,2.108-3.1l2.917-15.789L56.714,53.133z"/><path fill="#8e9db5" d="M63.984 24.275L67.943 25.007 67.991 32.928 66.112 34.019 62.634 33.376 61.109 31.656z"/><path fill="#472b29" d="M66.112,34.519c-0.03,0-0.061-0.003-0.091-0.008l-3.478-0.643c-0.109-0.021-0.209-0.077-0.283-0.16l-1.525-1.72c-0.124-0.14-0.16-0.338-0.092-0.513l2.875-7.381c0.087-0.224,0.32-0.358,0.557-0.31l3.959,0.732c0.236,0.043,0.408,0.249,0.409,0.489l0.048,7.92c0.001,0.179-0.094,0.345-0.249,0.435l-1.879,1.091C66.287,34.496,66.2,34.519,66.112,34.519z M62.894,32.916l3.127,0.578l1.468-0.853l-0.043-7.217l-3.146-0.582l-2.613,6.711L62.894,32.916z"/><path fill="#c6243f" d="M55.914,69.176L55.914,69.176c-0.574-0.106-0.957-0.662-0.85-1.236l2.185-11.824c0.106-0.574,0.662-0.957,1.236-0.85h0c0.574,0.106,0.957,0.662,0.85,1.236L57.15,68.325C57.044,68.899,56.488,69.282,55.914,69.176z"/><path fill="#472b29" d="M56.107,69.444c-0.079,0-0.158-0.007-0.238-0.021c0,0-0.001,0-0.001,0c-0.71-0.131-1.182-0.816-1.051-1.527l2.185-11.824c0.133-0.711,0.822-1.181,1.527-1.051c0.711,0.131,1.183,0.816,1.052,1.527l-2.185,11.824C57.279,69.002,56.726,69.444,56.107,69.444z M55.96,68.93c0.443,0.08,0.863-0.211,0.944-0.65l2.185-11.824c0.081-0.439-0.211-0.863-0.649-0.945c-0.446-0.076-0.864,0.212-0.945,0.65l-2.185,11.824C55.228,68.425,55.52,68.849,55.96,68.93L55.96,68.93z"/><path fill="#c6243f" d="M62.244,60.219l-1.617,8.749c-0.106,0.574-0.662,0.957-1.236,0.85h0c-0.574-0.106-0.957-0.662-0.85-1.236l2.185-11.824c0.106-0.574,0.662-0.957,1.236-0.85v0c0.574,0.106,0.957,0.662,0.85,1.236l-0.162,0.877"/><path fill="#472b29" d="M59.585,70.086c-0.079,0-0.158-0.007-0.238-0.021c-0.711-0.131-1.183-0.817-1.052-1.527l2.185-11.824c0.132-0.711,0.823-1.181,1.527-1.051c0.711,0.131,1.183,0.816,1.052,1.527l-0.162,0.877c-0.025,0.135-0.151,0.228-0.292,0.2c-0.136-0.025-0.225-0.155-0.2-0.291l0.162-0.877c0.081-0.439-0.211-0.863-0.649-0.945c-0.448-0.076-0.863,0.212-0.945,0.65l-2.185,11.823c-0.081,0.44,0.211,0.864,0.65,0.945c0.44,0.08,0.863-0.211,0.944-0.65l1.616-8.75c0.025-0.135,0.158-0.228,0.291-0.2c0.137,0.025,0.226,0.155,0.201,0.291l-1.616,8.75C60.757,69.644,60.204,70.086,59.585,70.086z"/><path fill="#472b29" d="M62.4,59.624c-0.015,0-0.03-0.001-0.045-0.004c-0.137-0.025-0.226-0.155-0.201-0.291l0.103-0.555c0.025-0.135,0.156-0.227,0.291-0.2c0.137,0.025,0.226,0.155,0.201,0.291l-0.103,0.555C62.624,59.54,62.518,59.624,62.4,59.624z"/><path fill="#8e9db5" d="M74.447,40.132c-2.976,0-5.388,2.412-5.388,5.388s2.412,5.388,5.388,5.388c2.976,0,5.388-2.412,5.388-5.388S77.422,40.132,74.447,40.132z M76.104,48.391h-3.315l-1.657-2.87l1.657-2.87h3.315l1.657,2.87L76.104,48.391z"/><path fill="#472b29" d="M74.447,51.409c-3.247,0-5.889-2.642-5.889-5.888c0-3.247,2.642-5.889,5.889-5.889c3.246,0,5.888,2.642,5.888,5.889C80.335,48.767,77.693,51.409,74.447,51.409z M74.447,40.632c-2.695,0-4.889,2.193-4.889,4.889c0,2.695,2.193,4.888,4.889,4.888s4.888-2.193,4.888-4.888C79.335,42.825,77.142,40.632,74.447,40.632z"/><path fill="#472b29" d="M76.104 48.641H72.79c-.089 0-.172-.048-.217-.125l-1.657-2.87c-.044-.077-.044-.173 0-.25l1.657-2.871c.045-.077.128-.125.217-.125h3.314c.089 0 .172.048.217.125l1.657 2.871c.044.077.044.173 0 .25l-1.657 2.87C76.276 48.593 76.193 48.641 76.104 48.641zM72.934 48.141h3.025l1.513-2.62L75.96 42.9h-3.025l-1.513 2.621L72.934 48.141zM62.343 35.156c-.053 0-.102-.033-.118-.085-.022-.065.013-.136.078-.158l3.034-1.012c.07-.021.138.014.158.079.022.065-.013.136-.078.158l-3.034 1.012C62.37 35.154 62.356 35.156 62.343 35.156zM62.427 36.075c-.053 0-.102-.033-.118-.085-.022-.065.013-.136.078-.158l3.034-1.012c.071-.022.138.015.158.079.022.065-.013.136-.078.158l-3.034 1.012C62.454 36.073 62.44 36.075 62.427 36.075zM62.236 37.113c-.053 0-.102-.033-.118-.085-.022-.065.013-.136.078-.158l3.034-1.012c.072-.023.138.014.158.079.022.065-.013.136-.078.158l-3.034 1.012C62.262 37.111 62.249 37.113 62.236 37.113zM62.07 38.103c-.053 0-.102-.033-.118-.085-.022-.065.013-.136.078-.158l3.034-1.012c.071-.021.138.014.158.079.022.065-.013.136-.078.158l-3.034 1.012C62.096 38.101 62.083 38.103 62.07 38.103zM62.946 38.757c-.053 0-.102-.033-.118-.085-.022-.065.013-.136.078-.158l2.503-.834c.066-.022.137.015.157.079.022.065-.013.136-.078.158l-2.503.834C62.972 38.755 62.959 38.757 62.946 38.757zM63.901 39.335c-.053 0-.102-.033-.118-.085-.022-.065.013-.136.079-.158l1.131-.377c.065-.021.137.014.157.079.022.065-.013.136-.079.158l-1.131.377C63.927 39.333 63.914 39.335 63.901 39.335z"/></svg>