<svg xmlns="http://www.w3.org/2000/svg" viewBox="0 0 100 100" width="200px" height="200px"><path fill="#c7ede6" d="M88.704,55.674c0.3-0.616,0.566-1.264,0.796-1.943c2.633-7.77-1.349-17.078-9.733-19.325C78.86,23.023,70.86,15.214,61.826,13.881c-10.341-1.525-19.814,5.044-22.966,15.485c-3.799-1.346-7.501-1.182-10.99,0.857c-1.583,0.732-3.031,1.812-4.33,3.233c-1.907,2.086-3.147,4.719-3.652,7.495c-0.748,0.118-1.483,0.236-2.176,0.484c-4.04,1.449-6.589,4.431-7.288,8.923c-0.435,2.797,0.443,5.587,0.933,6.714c1.935,4.455,6.422,6.98,10.981,6.312c0.227-0.033,0.557,0.069,0.752,0.233c0.241,7.12,3.698,13.417,8.884,17.014c8.321,5.772,19.027,3.994,25.781-3.921c2.894,2.96,6.338,4.398,10.384,3.876c4.023-0.519,7.147-2.739,9.426-6.349c1.053,0.283,2.051,0.691,3.083,0.804c4.042,0.442,7.324-1.165,9.732-4.8c0.922-1.391,1.793-3.194,1.793-6.354C92.174,60.631,90.881,57.664,88.704,55.674z"/><path fill="#fdfcef" d="M71.968,48.843c0,0,11.691,0,11.762,0c2.7,0,4.888-2.189,4.888-4.889c0-2.355-1.666-4.321-3.884-4.784c0.026-0.206,0.043-0.415,0.043-0.628c0-2.796-2.267-5.063-5.063-5.063c-1.651,0-3.113,0.794-4.037,2.017c-0.236-3.113-3.017-5.514-6.27-5.116c-2.379,0.291-4.346,2.13-4.784,4.486c-0.14,0.756-0.126,1.489,0.014,2.177c-0.638-0.687-1.546-1.119-2.557-1.119c-1.85,0-3.361,1.441-3.48,3.261c-0.84-0.186-1.754-0.174-2.717,0.188c-1.84,0.691-3.15,2.423-3.227,4.387c-0.109,2.789,2.12,5.085,4.885,5.085c0.21,0,0.948,0,1.118,0h10.151"/><path fill="#472b29" d="M83.73,49.343H71.968c-0.276,0-0.5-0.224-0.5-0.5s0.224-0.5,0.5-0.5H83.73c2.42,0,4.389-1.969,4.389-4.389c0-2.066-1.466-3.872-3.487-4.295c-0.255-0.053-0.426-0.293-0.394-0.552c0.023-0.186,0.039-0.374,0.039-0.565c0-2.517-2.047-4.563-4.562-4.563c-1.438,0-2.765,0.663-3.638,1.818c-0.125,0.166-0.339,0.237-0.54,0.178c-0.199-0.059-0.342-0.234-0.357-0.441c-0.104-1.377-0.779-2.671-1.85-3.549c-1.083-0.888-2.456-1.282-3.86-1.109c-2.166,0.266-3.956,1.943-4.353,4.082c-0.124,0.667-0.12,1.335,0.013,1.985c0.044,0.22-0.062,0.442-0.262,0.544c-0.199,0.104-0.442,0.061-0.595-0.104c-0.575-0.618-1.353-0.959-2.19-0.959c-1.569,0-2.878,1.228-2.981,2.794c-0.01,0.146-0.082,0.279-0.199,0.366c-0.117,0.088-0.267,0.118-0.408,0.089c-0.841-0.185-1.638-0.132-2.433,0.167c-1.668,0.627-2.835,2.21-2.903,3.939c-0.047,1.207,0.386,2.35,1.221,3.218s1.958,1.347,3.164,1.347h11.269c0.276,0,0.5,0.224,0.5,0.5s-0.224,0.5-0.5,0.5H57.542c-1.479,0-2.859-0.588-3.885-1.654c-1.025-1.065-1.557-2.468-1.499-3.949c0.083-2.126,1.51-4.069,3.55-4.836c0.8-0.3,1.625-0.4,2.468-0.299c0.377-1.822,1.998-3.182,3.905-3.182c0.684,0,1.354,0.18,1.944,0.51c-0.001-0.385,0.035-0.772,0.106-1.158c0.477-2.563,2.621-4.574,5.215-4.892c1.679-0.206,3.32,0.266,4.616,1.328c1.003,0.823,1.716,1.951,2.038,3.193c1.012-0.916,2.319-1.426,3.714-1.426c3.067,0,5.562,2.496,5.562,5.563c0,0.083-0.002,0.166-0.007,0.248c2.254,0.674,3.848,2.777,3.848,5.164C89.118,46.926,86.701,49.343,83.73,49.343z"/><path fill="#fdfcef" d="M69.135,38.075c-1.808-0.119-3.365,1.13-3.476,2.789c-0.014,0.206-0.005,0.409,0.025,0.606c-0.349-0.394-0.865-0.661-1.458-0.7c-1.085-0.071-2.022,0.645-2.158,1.62c-0.197-0.054-0.403-0.09-0.616-0.104c-1.582-0.104-2.944,0.989-3.042,2.441"/><path fill="#472b29" d="M58.41,44.976c-0.006,0-0.012,0-0.017-0.001c-0.138-0.009-0.242-0.128-0.233-0.266c0.106-1.587,1.588-2.788,3.308-2.674c0.137,0.009,0.273,0.026,0.409,0.053c0.273-0.968,1.251-1.647,2.366-1.567c0.425,0.027,0.824,0.16,1.164,0.382c0.001-0.019,0.002-0.037,0.003-0.056c0.121-1.795,1.784-3.153,3.742-3.021c0.138,0.009,0.242,0.128,0.233,0.266c-0.009,0.138-0.125,0.255-0.266,0.232c-1.655-0.105-3.108,1.037-3.21,2.557c-0.012,0.184-0.004,0.37,0.023,0.553c0.017,0.109-0.041,0.217-0.141,0.264c-0.101,0.047-0.22,0.022-0.293-0.061c-0.322-0.364-0.779-0.583-1.288-0.617c-0.934-0.043-1.775,0.556-1.894,1.404c-0.01,0.071-0.05,0.135-0.11,0.175c-0.061,0.04-0.133,0.052-0.204,0.032c-0.187-0.051-0.377-0.083-0.567-0.097c-1.44-0.089-2.687,0.897-2.775,2.209C58.651,44.875,58.541,44.976,58.41,44.976z"/><path fill="#fdfcef" d="M85.709,39.743c-1.699-0.801-3.664-0.234-4.389,1.267c-0.09,0.186-0.157,0.379-0.201,0.574"/><path fill="#472b29" d="M81.119,41.834c-0.018,0-0.037-0.002-0.056-0.006c-0.134-0.031-0.219-0.165-0.188-0.3c0.049-0.215,0.123-0.426,0.219-0.626c0.784-1.622,2.903-2.241,4.721-1.385c0.125,0.06,0.179,0.208,0.12,0.333c-0.059,0.126-0.21,0.176-0.333,0.12c-1.573-0.743-3.393-0.227-4.058,1.148c-0.08,0.167-0.142,0.342-0.182,0.521C81.337,41.755,81.234,41.834,81.119,41.834z"/><path fill="#fff" d="M18.368 47.711H8.338c-.276 0-.5-.224-.5-.5s.224-.5.5-.5h10.03c.276 0 .5.224.5.5S18.645 47.711 18.368 47.711zM21.25 47.711h-1.446c-.276 0-.5-.224-.5-.5s.224-.5.5-.5h1.446c.276 0 .5.224.5.5S21.526 47.711 21.25 47.711zM25.304 47.711h-2.546c-.276 0-.5-.224-.5-.5s.224-.5.5-.5h2.546c.276 0 .5.224.5.5S25.581 47.711 25.304 47.711zM25.304 49.575h-9.617c-.276 0-.5-.224-.5-.5s.224-.5.5-.5h9.617c.276 0 .5.224.5.5S25.581 49.575 25.304 49.575zM13.956 49.575h-.58c-.276 0-.5-.224-.5-.5s.224-.5.5-.5h.58c.276 0 .5.224.5.5S14.233 49.575 13.956 49.575zM11.579 49.575h-1.456c-.276 0-.5-.224-.5-.5s.224-.5.5-.5h1.456c.276 0 .5.224.5.5S11.856 49.575 11.579 49.575zM20.716 45.845h-5.028c-.276 0-.5-.224-.5-.5s.224-.5.5-.5h5.028c.276 0 .5.224.5.5S20.992 45.845 20.716 45.845zM20.716 43.98h-1.257c-.276 0-.5-.224-.5-.5s.224-.5.5-.5h1.257c.276 0 .5.224.5.5S20.992 43.98 20.716 43.98zM17.447 51.44h-1.759c-.276 0-.5-.224-.5-.5s.224-.5.5-.5h1.759c.276 0 .5.224.5.5S17.723 51.44 17.447 51.44z"/><path fill="#edf7f5" d="M71.949,30.724l2.491-0.038c0.142-5.083-5.983-4.773-5.983-4.773L38.29,25.909c-2.314,0-4.227,2.526-4.227,4.593v26.08l-5.998-0.017c-0.005,0.217,0.003,12.478,0.022,12.673c0.392,4.033,5.651,3.582,5.651,3.582l35.105,0.025c1.892,0.176,3.107-2.082,3.107-3.336C71.949,68.254,71.949,30.724,71.949,30.724"/><path fill="#472b29" d="M33.555,71.133c-0.387,0-0.7-0.313-0.7-0.7s0.313-0.7,0.7-0.7c0.127,0,0.162-0.036,0.182-0.058c0.126-0.136,0.26-0.523,0.18-1.599l0.047-37.575c0-2.396,2.198-5.292,4.927-5.292l30.167,0.003c0.101-0.006,3.353-0.147,5.294,1.75c0.964,0.943,1.432,2.202,1.388,3.743c-0.011,0.379-0.32,0.68-0.699,0.681l-22.938,0.038c0,0,0,0-0.001,0c-0.386,0-0.699-0.312-0.7-0.699c0-0.387,0.312-0.7,0.699-0.701l22.214-0.037c-0.089-0.825-0.399-1.49-0.938-2.02c-1.498-1.47-4.255-1.353-4.285-1.355L38.891,26.61c-1.866,0-3.527,2.177-3.527,3.893l-0.049,37.523c0.068,0.892,0.057,1.945-0.553,2.602C34.456,70.959,34.038,71.133,33.555,71.133z"/><path fill="#472b29" d="M69.657 73.53c-.091 0-.182-.005-.274-.013l-34.987-.022c-1.998.167-5.975-.479-6.338-4.205-.027-.272-.027-12.621-.025-12.723.008-.381.319-.685.7-.685 0 0 .001 0 .001 0l5.331.017c.387.001.699.315.698.702-.001.386-.314.698-.7.698 0 0-.001 0-.002 0l-4.628-.015c0 2.569.005 11.489.021 11.898.317 3.251 4.697 2.931 4.884 2.914l35.111.022c.527.044.963-.119 1.368-.488.647-.59 1.034-1.551 1.034-2.139V30.724c0-.387.313-.7.7-.7s.7.313.7.7v38.769c0 1.068-.613 2.374-1.491 3.174C71.136 73.234 70.414 73.53 69.657 73.53zM49.097 31.424H46.09c-.387 0-.7-.313-.7-.7s.313-.7.7-.7h3.007c.387 0 .7.313.7.7S49.484 31.424 49.097 31.424zM48.796 39.819H37.971c-.207 0-.375-.168-.375-.375s.168-.375.375-.375h10.825c.207 0 .375.168.375.375S49.003 39.819 48.796 39.819z"/><path fill="#472b29" d="M70.446 39.819H50.6c-.207 0-.375-.168-.375-.375s.168-.375.375-.375h19.845c.207 0 .375.168.375.375S70.653 39.819 70.446 39.819zM70.446 45.833H51.803c-.207 0-.375-.168-.375-.375s.168-.375.375-.375h18.643c.207 0 .375.168.375.375S70.653 45.833 70.446 45.833zM64.531 50.042H51.803c-.207 0-.375-.168-.375-.375s.168-.375.375-.375h12.728c.207 0 .375.168.375.375S64.738 50.042 64.531 50.042z"/><path fill="#a8dbdb" d="M48.195 46.059L48.195 53.877 37.972 53.877 37.972 44.255 46.391 44.255"/><path fill="#472b29" d="M48.195 54.252H37.971c-.207 0-.375-.168-.375-.375v-9.622c0-.207.168-.375.375-.375h8.419c.207 0 .375.168.375.375s-.168.375-.375.375h-8.044v8.872h9.474v-7.442c0-.207.168-.375.375-.375s.375.168.375.375v7.817C48.57 54.084 48.402 54.252 48.195 54.252zM59.785 54.252h-7.982c-.207 0-.375-.168-.375-.375s.168-.375.375-.375h7.982c.207 0 .375.168.375.375S59.992 54.252 59.785 54.252zM62.026 36.211h-8.419c-.207 0-.375-.168-.375-.375s.168-.375.375-.375h8.419c.207 0 .375.168.375.375S62.233 36.211 62.026 36.211zM70.446 36.211H63.83c-.207 0-.375-.168-.375-.375s.168-.375.375-.375h6.615c.207 0 .375.168.375.375S70.653 36.211 70.446 36.211zM51.803 36.211H37.971c-.207 0-.375-.168-.375-.375s.168-.375.375-.375h13.832c.207 0 .375.168.375.375S52.01 36.211 51.803 36.211zM56.614 67.482H37.971c-.207 0-.375-.168-.375-.375s.168-.375.375-.375h18.643c.207 0 .375.168.375.375S56.821 67.482 56.614 67.482zM55.135 63.272H37.971c-.207 0-.375-.168-.375-.375s.168-.375.375-.375h17.164c.207 0 .375.168.375.375S55.342 63.272 55.135 63.272zM52.218 59.062H37.971c-.207 0-.375-.168-.375-.375s.168-.375.375-.375h14.247c.207 0 .375.168.375.375S52.426 59.062 52.218 59.062z"/><path fill="#ef9922" d="M40.946 45.324A0.976 0.976 0 1 0 40.946 47.275999999999996A0.976 0.976 0 1 0 40.946 45.324Z" transform="rotate(-89.931 40.947 46.3)"/><path fill="#472b29" d="M40.947,47.4c-0.001,0-0.001,0-0.001,0c-0.294,0-0.571-0.114-0.778-0.323c-0.208-0.208-0.322-0.484-0.322-0.778c0.001-0.606,0.496-1.1,1.102-1.1c0.607,0.001,1.1,0.495,1.1,1.102l0,0c0,0.294-0.115,0.57-0.323,0.778C41.516,47.286,41.24,47.4,40.947,47.4z M40.947,45.449c-0.469,0-0.851,0.381-0.852,0.85c0,0.228,0.088,0.441,0.249,0.603c0.161,0.16,0.374,0.249,0.601,0.249h0.001c0.227,0,0.44-0.088,0.601-0.248c0.161-0.161,0.25-0.374,0.25-0.602C41.798,45.832,41.416,45.45,40.947,45.449z"/><path fill="#88ae45" d="M45.429,48.747l1.245-1.782c0.084-0.12,0.237-0.11,0.311,0.019l1.006,1.766l0.038,4.438"/><path fill="#472b29" d="M47.904,53.188l-0.038-4.405l-0.99-1.737c-0.014-0.024-0.033-0.039-0.051-0.04c-0.011,0-0.034,0.009-0.049,0.031l-1.245,1.781l-0.205-0.143l1.245-1.781c0.063-0.092,0.166-0.154,0.266-0.138c0.104,0.005,0.2,0.066,0.256,0.166l1.022,1.826l0.038,4.438L47.904,53.188z"/><path fill="#88ae45" d="M40.25,53.559l3.769-6.651c0.076-0.133,0.243-0.135,0.321-0.003l3.69,6.282l0,0.381L40.25,53.559z"/><path fill="#472b29" d="M48.154,53.694l-8.118-0.01l3.875-6.837c0.058-0.103,0.158-0.163,0.268-0.164c0.001,0,0.001,0,0.002,0c0.108,0,0.208,0.06,0.267,0.159l3.707,6.311L48.154,53.694z M40.464,53.434l7.439,0.01l0-0.223l-3.672-6.252c-0.014-0.023-0.032-0.036-0.052-0.036l0,0c-0.02,0-0.039,0.014-0.053,0.037L40.464,53.434z"/><path fill="#88ae45" d="M38.255,50.884l1.688-2.217c0.11-0.144,0.306-0.133,0.403,0.023l1.365,2.198l-1.461,2.671l-2.019-0.002L38.255,50.884z"/><path fill="#472b29" d="M40.324,53.684l-2.219-0.002l0.025-2.841l0.025-0.033l1.688-2.218c0.077-0.101,0.201-0.148,0.309-0.15c0.122,0.006,0.231,0.073,0.3,0.185l1.403,2.26L40.324,53.684z M38.357,53.432l1.818,0.002l1.39-2.542l-1.326-2.136c-0.025-0.04-0.061-0.064-0.099-0.066c-0.042-0.001-0.071,0.018-0.098,0.052l-1.664,2.186L38.357,53.432z"/><path fill="#fdfcef" d="M39.997,74.99c1.883,0,3.517,0,3.54,0c2.11,0,3.821-1.674,3.821-3.739c0-1.802-1.302-3.305-3.035-3.66c0.02-0.158,0.034-0.317,0.034-0.48c0-2.139-1.772-3.873-3.957-3.873c-1.29,0-2.433,0.607-3.155,1.543c-0.185-2.381-2.358-4.218-4.9-3.913c-1.859,0.223-3.397,1.629-3.739,3.431c-0.11,0.578-0.098,1.139,0.011,1.665c-0.498-0.525-1.208-0.856-1.998-0.856c-1.446,0-2.627,1.102-2.72,2.494c-0.657-0.142-1.371-0.133-2.123,0.143c-1.438,0.528-2.462,1.853-2.522,3.356c-0.085,2.133,1.657,3.889,3.818,3.889c0.164,0,0.741,0,0.874,0h7.934 M33.52,74.99h0.36"/><path fill="#472b29" d="M43.537,75.49h-3.54c-0.276,0-0.5-0.224-0.5-0.5s0.224-0.5,0.5-0.5h3.54c1.831,0,3.321-1.453,3.321-3.239c0-1.524-1.108-2.857-2.636-3.169c-0.256-0.053-0.429-0.294-0.396-0.553c0.018-0.138,0.03-0.276,0.03-0.418c0-1.86-1.551-3.373-3.457-3.373c-1.092,0-2.098,0.491-2.76,1.349c-0.126,0.164-0.341,0.231-0.539,0.174c-0.198-0.06-0.339-0.234-0.355-0.44c-0.079-1.02-0.565-1.944-1.369-2.604c-0.828-0.68-1.881-0.98-2.973-0.854c-1.646,0.197-3.006,1.442-3.307,3.028c-0.094,0.495-0.091,0.989,0.009,1.471c0.045,0.219-0.06,0.441-0.258,0.545c-0.197,0.102-0.44,0.063-0.594-0.1c-0.428-0.451-1.008-0.699-1.635-0.699c-1.169,0-2.145,0.891-2.221,2.027c-0.01,0.146-0.082,0.279-0.198,0.366c-0.116,0.087-0.264,0.12-0.407,0.089c-0.635-0.137-1.24-0.098-1.845,0.125c-1.262,0.463-2.144,1.631-2.195,2.905c-0.035,0.875,0.283,1.708,0.895,2.345c0.635,0.66,1.495,1.024,2.423,1.024h8.808c0.276,0,0.5,0.224,0.5,0.5s-0.224,0.5-0.5,0.5H23.07c-1.185,0-2.331-0.485-3.144-1.331c-0.802-0.835-1.219-1.928-1.173-3.077c0.067-1.675,1.212-3.204,2.849-3.806c0.612-0.225,1.243-0.307,1.88-0.244c0.344-1.396,1.629-2.424,3.135-2.424c0.493,0,0.977,0.113,1.414,0.322c0.009-0.241,0.037-0.483,0.083-0.726c0.381-2.009,2.096-3.586,4.17-3.834c1.363-0.167,2.685,0.218,3.727,1.072c0.747,0.613,1.277,1.409,1.546,2.302c0.791-0.648,1.786-1.007,2.842-1.007c2.458,0,4.457,1.962,4.457,4.373c0,0.034,0,0.068-0.001,0.103c1.764,0.555,3.003,2.188,3.003,4.037C47.858,73.588,45.92,75.49,43.537,75.49z M33.88,75.49h-0.36c-0.276,0-0.5-0.224-0.5-0.5s0.224-0.5,0.5-0.5h0.36c0.276,0,0.5,0.224,0.5,0.5S34.156,75.49,33.88,75.49z"/><path fill="#472b29" d="M41.83 69.687c-.018 0-.036-.002-.054-.006-.135-.03-.22-.164-.19-.299.037-.166.094-.327.169-.479.605-1.223 2.275-1.676 3.722-1.006.125.058.18.206.122.331-.058.126-.207.179-.332.122-1.203-.556-2.578-.207-3.064.774-.058.116-.101.239-.129.367C42.048 69.608 41.945 69.687 41.83 69.687zM36.671 75.49h-1.107c-.276 0-.5-.224-.5-.5s.224-.5.5-.5h1.107c.276 0 .5.224.5.5S36.947 75.49 36.671 75.49z"/><path fill="#f6cca4" d="M83.718,68.657c-1.423,2.586-3.52,4.468-6.156,5.757c-3.311,1.618-6.792,2.104-10.414,1.43c-2.245-0.418-4.272-1.332-5.964-2.901c-0.688-0.638-1.237-1.371-1.461-2.308c-0.746-2.489,1.843-2.514,2.511-2.708c1.014-0.295,2.026-0.611,2.86-1.301c1.786-1.478,1.779-2.398,0.325-4.332c-0.591-0.786-1.171-1.488-1.724-2.301c-1.27-1.869-1.006-4.498,0.408-6.364c1.085-1.431,1.97-2.197,3.714-3.153c3.053-1.911,11.794-2.195,15.306,5.007C85.881,61.003,85.151,66.055,83.718,68.657z"/><path fill="#472b29" d="M70.27,76.637c-1.062,0-2.133-0.101-3.214-0.302c-2.449-0.455-4.539-1.474-6.213-3.026c-0.873-0.81-1.384-1.622-1.607-2.559c-0.236-0.786-0.191-1.473,0.141-2.014c0.549-0.893,1.693-1.099,2.376-1.222c0.139-0.024,0.258-0.045,0.341-0.069c1.032-0.3,1.946-0.598,2.681-1.206c1.531-1.267,1.572-1.88,0.244-3.646c-0.191-0.254-0.38-0.499-0.568-0.741c-0.399-0.516-0.791-1.022-1.17-1.579c-1.347-1.984-1.173-4.84,0.423-6.946c1.145-1.512,2.086-2.311,3.873-3.29c1.758-1.103,5.392-1.709,8.884-0.71c2.236,0.64,5.284,2.188,7.111,5.936c2.839,5.686,2.089,10.9,0.583,13.637l0,0c-1.424,2.586-3.569,4.593-6.375,5.965C75.365,76.045,72.849,76.637,70.27,76.637z M72.758,49.813c-1.942,0-3.656,0.447-4.675,1.086c-1.69,0.927-2.521,1.632-3.582,3.031c-1.341,1.77-1.502,4.146-0.393,5.78c0.367,0.54,0.747,1.03,1.133,1.529c0.19,0.246,0.383,0.495,0.577,0.752c1.643,2.186,1.544,3.405-0.406,5.019c-0.883,0.73-1.899,1.064-3.04,1.396c-0.109,0.031-0.263,0.061-0.443,0.093c-0.552,0.1-1.387,0.249-1.701,0.761c-0.177,0.288-0.186,0.702-0.027,1.23c0.183,0.763,0.6,1.417,1.321,2.086c1.534,1.421,3.457,2.355,5.716,2.776c3.492,0.647,6.891,0.183,10.103-1.388c2.617-1.279,4.615-3.146,5.938-5.549l0,0c1.389-2.524,2.064-7.368-0.604-12.712c-1.668-3.42-4.45-4.833-6.49-5.417C75.026,49.956,73.855,49.813,72.758,49.813z M83.718,68.658h0.01H83.718z"/><path fill="#af824e" d="M72.115,76.726c0.502,0.703,0.238,1.768-0.59,2.379l-0.143,0.105c-0.828,0.611-1.906,0.536-2.408-0.167l-0.207-0.282c-0.015-0.021,0.016,0.016,0.017,0.015l-0.007,0.005l-7.95-12.988l1.634-0.936L72,76.582l-0.007,0.005c0,0-0.058-0.106-0.043-0.085L72.115,76.726z"/><path fill="#472b29" d="M70.177,79.999c-0.11,0-0.219-0.009-0.327-0.025c-0.489-0.078-0.908-0.331-1.18-0.712l-0.161-0.22c-0.02-0.019-0.036-0.04-0.051-0.064l-7.951-12.988c-0.053-0.086-0.068-0.19-0.043-0.288c0.025-0.099,0.089-0.183,0.177-0.232l1.634-0.936c0.159-0.09,0.36-0.055,0.478,0.089l9.421,11.58c0.032,0.024,0.062,0.055,0.085,0.09l0.157,0.209c0.001,0.003,0.003,0.005,0.004,0.007c0.619,0.867,0.318,2.168-0.672,2.899l-0.142,0.105C71.176,79.829,70.671,79.999,70.177,79.999z M69.121,78.609l0.157,0.213c0.201,0.281,0.486,0.378,0.69,0.41c0.392,0.065,0.828-0.056,1.192-0.323l0.142-0.105c0.662-0.488,0.89-1.32,0.51-1.857l-0.047-0.062c-0.042-0.031-0.078-0.07-0.103-0.117c-0.002-0.004-0.004-0.008-0.007-0.013l-9.284-11.412l-1.022,0.586l7.705,12.587c0.012,0.013,0.023,0.026,0.034,0.04C69.101,78.572,69.112,78.59,69.121,78.609z"/><path fill="#c29b67" d="M61.516,60.366l1.119,1.669c0.709,1.058,0.657,2.619-0.633,3.499l-0.173,0.118c-1.29,0.88-2.691,0.312-3.401-0.746l-1.119-1.669L61.516,60.366z"/><path fill="#472b29" d="M60.497,66.461c-0.163,0-0.326-0.016-0.489-0.047c-0.745-0.145-1.435-0.618-1.891-1.299l-1.119-1.668c-0.115-0.171-0.07-0.402,0.1-0.519l4.207-2.872c0.083-0.056,0.185-0.078,0.282-0.059c0.099,0.019,0.185,0.076,0.241,0.159l1.119,1.669c0.784,1.169,0.794,2.975-0.733,4.018l-0.173,0.118C61.557,66.292,61.031,66.461,60.497,66.461z M57.828,63.337l0.912,1.359c0.346,0.517,0.86,0.874,1.411,0.979c0.498,0.099,1.005-0.019,1.467-0.334l0.173-0.118c1.128-0.771,1.116-2.11,0.533-2.98l-0.909-1.355L57.828,63.337z"/><g><path fill="#ec795a" d="M54.268,58.445c0.652,1.844,2.27,2.941,3.41,2.602c2.731-0.813,2.685-3.861,0.565-4.423c-2.599-0.69-3.169-2.428-3.169-2.428S53.616,56.601,54.268,58.445z"/><path fill="#472b29" d="M57.234,61.46c-1.278,0-2.695-1.2-3.296-2.897c-0.7-1.978,0.774-4.443,0.837-4.548c0.071-0.116,0.204-0.186,0.339-0.166c0.136,0.016,0.25,0.108,0.292,0.238c0.021,0.062,0.562,1.571,2.926,2.199c1.078,0.285,1.785,1.176,1.801,2.268c0.015,0.977-0.594,2.304-2.356,2.828C57.602,61.434,57.42,61.46,57.234,61.46z M55.08,54.947c-0.364,0.783-0.89,2.228-0.481,3.381c0.599,1.694,2.067,2.648,2.98,2.384c1.388-0.414,1.868-1.416,1.857-2.147c-0.012-0.782-0.503-1.396-1.281-1.603C56.397,56.495,55.503,55.573,55.08,54.947z"/></g><g><path fill="#ee3e54" d="M69.346 53.894000000000005A2.181 2.181 0 1 0 69.346 58.256A2.181 2.181 0 1 0 69.346 53.894000000000005Z"/><path fill="#472b29" d="M69.346,58.506c-1.34,0-2.431-1.091-2.431-2.432s1.091-2.432,2.431-2.432c1.341,0,2.432,1.091,2.432,2.432S70.687,58.506,69.346,58.506z M69.346,54.143c-1.065,0-1.931,0.866-1.931,1.932s0.866,1.932,1.931,1.932c1.065,0,1.932-0.866,1.932-1.932S70.411,54.143,69.346,54.143z"/></g><g><path fill="#ef8f70" d="M76.532 53.894000000000005A2.181 2.181 0 1 0 76.532 58.256A2.181 2.181 0 1 0 76.532 53.894000000000005Z"/><path fill="#472b29" d="M76.531,58.506c-1.34,0-2.431-1.091-2.431-2.432s1.091-2.432,2.431-2.432c1.341,0,2.432,1.091,2.432,2.432S77.872,58.506,76.531,58.506z M76.531,54.143c-1.065,0-1.931,0.866-1.931,1.932s0.866,1.932,1.931,1.932s1.932-0.866,1.932-1.932S77.596,54.143,76.531,54.143z"/></g><g><path fill="#f1bc19" d="M79.611 61.080000000000005A2.181 2.181 0 1 0 79.611 65.44200000000001A2.181 2.181 0 1 0 79.611 61.080000000000005Z"/><path fill="#472b29" d="M79.611,65.692c-1.34,0-2.431-1.091-2.431-2.432c0-1.34,1.091-2.431,2.431-2.431c1.341,0,2.432,1.091,2.432,2.431C82.043,64.601,80.952,65.692,79.611,65.692z M79.611,61.33c-1.065,0-1.931,0.866-1.931,1.931c0,1.065,0.866,1.932,1.931,1.932s1.932-0.866,1.932-1.932C81.543,62.196,80.676,61.33,79.611,61.33z"/></g><g><path fill="#78a0cf" d="M76.403 67.752A1.796 1.796 0 1 0 76.403 71.34400000000001A1.796 1.796 0 1 0 76.403 67.752Z"/><path fill="#472b29" d="M76.404,71.594c-1.128,0-2.046-0.918-2.046-2.046c0-1.129,0.918-2.047,2.046-2.047s2.046,0.918,2.046,2.047C78.45,70.676,77.532,71.594,76.404,71.594z M76.404,68.002c-0.853,0-1.546,0.694-1.546,1.547s0.694,1.546,1.546,1.546s1.546-0.693,1.546-1.546S77.256,68.002,76.404,68.002z"/></g></svg>